# xmcd
#
# Track frame offsets:
#	150
#	8850
#	18880
#	29985
#	42058
#	53723
#	63920
#	71295
#	78785
#	87828
#
# Disc length: 1311 seconds
#
# Revision: 2
# Processed by: cddbd v1.5.2PL0 Copyright (c) Steve Scherf et al.
# Submitted via: EZCDAudioConverter 6.0.7.1
#
DISCID=6f051d0a
DTITLE=Jim Reeves - Golden Hits
DYEAR=1996
DGENRE=Country
TTITLE0=Yonder Comes A Sucker
TTITLE1=He'll Have To Go
TTITLE2=Am I Losing You
TTITLE3=Four Walls
TTITLE4=Mexican Joe
TTITLE5=Anna Marie
TTITLE6=Blue Boy
TTITLE7=Bimbo
TTITLE8=Billy Bayou
TTITLE9=I Missed Me
EXTD=
EXTT0=
EXTT1=
EXTT2=
EXTT3=
EXTT4=
EXTT5=
EXTT6=
EXTT7=
EXTT8=
EXTT9=
PLAYORDER=
